<svg xmlns="http://www.w3.org/2000/svg" xmlns:xlink="http://www.w3.org/1999/xlink" version="1.1" id="Layer_1" x="0px" y="0px" width="100px" height="100px" viewBox="0 0 100 100" enable-background="new 0 0 100 100" xml:space="preserve">
<g>
	<g>
		<g>
			<path d="M5.041,17.463H83.29c1.104,0,1.996,0.893,1.996,1.996v24.753H63.419c-1.762,0-3.193,1.433-3.193,3.193v24.353h-8.444     l3.474,9.027c0,0.748-0.605,1.353-1.354,1.353H34.43c-0.746,0-1.353-0.604-1.353-1.353l3.473-9.027H5.041     c-1.103,0-1.995-0.895-1.995-1.996V19.458C3.046,18.356,3.938,17.463,5.041,17.463z"/>
		</g>
		<g>
			<path d="M84.578,80.541c0,1.103,0.894,1.997,1.996,1.997h8.384c1.104,0,1.996-0.895,1.996-1.997V62.177     c0-1.102-0.893-1.997-1.996-1.997h-8.384c-1.103,0-1.996,0.896-1.996,1.997V80.541z"/>
			<g>
				<path d="M83.05,81.638c-0.111-0.354-0.168-0.725-0.168-1.097V62.177c0-2.037,1.656-3.693,3.692-3.693h3.493V47.405      c0-0.825-0.672-1.497-1.496-1.497H63.419c-0.824,0-1.497,0.671-1.497,1.497v32.737c0,0.825,0.673,1.496,1.497,1.496H83.05z"/>
			</g>
		</g>
	</g>
</g>
</svg>