<svg xmlns="http://www.w3.org/2000/svg" xmlns:xlink="http://www.w3.org/1999/xlink" version="1.1" id="Calque_1" x="0px" y="0px" width="56.693px" height="56.693px" viewBox="0 0 56.693 56.693" enable-background="new 0 0 56.693 56.693" xml:space="preserve">
<g>
	<path d="M30.503,42.734c0.333,0.446,0.539,1.035,0.539,1.771c0,0.032-0.014,0.067-0.016,0.099   c-0.088,1.766-2.547,4.137-2.547,4.137s-2.459-2.371-2.547-4.137c-0.002-0.032-0.016-0.067-0.016-0.099   c0-0.737,0.206-1.325,0.539-1.771c-1.208,0.613-1.951,1.794-1.951,3.331c0,2.207,3.168,7.372,3.529,7.954l0.446,0.717l0.446-0.717   c0.361-0.582,3.529-5.747,3.529-7.954C32.454,44.529,31.711,43.347,30.503,42.734z"/>
	<path d="M28.477,39.509c-1.189,0-2.377-0.084-3.556-0.241c-0.426-0.057-0.852-0.121-1.276-0.198   c0.235,0.765,0.514,1.519,0.856,2.252l0.116,0.249l0.267,0.067c0.807,0.202,1.632,0.311,2.462,0.375   c0.377,0.029,0.754,0.07,1.133,0.07s0.755-0.041,1.133-0.07c0.83-0.064,1.656-0.172,2.463-0.375l0.267-0.067l0.116-0.25   c0.341-0.734,0.62-1.488,0.855-2.252c-0.423,0.077-0.849,0.14-1.275,0.197C30.857,39.424,29.667,39.509,28.477,39.509z"/>
	<path d="M38.951,26.251c-0.032,0.619-0.083,1.234-0.152,1.847c-0.338,3.021-1.125,5.966-2.335,8.806   c-0.142,0.334-0.279,0.668-0.433,0.999l-0.032,0.067l6.27,1.878v-8.646L38.951,26.251z"/>
	<path d="M20.494,36.904c-1.211-2.84-1.998-5.787-2.336-8.807c-0.068-0.613-0.119-1.229-0.151-1.848l-3.318,4.954v8.646l6.271-1.879   l-0.032-0.067C20.773,37.573,20.636,37.237,20.494,36.904z"/>
	<path d="M34.344,10.119c-2.086-3.804-4.4-6.156-5.218-6.92c-0.083-0.802-0.258-1.414-0.473-1.634   c-0.021-0.022-0.042-0.041-0.064-0.055l-0.11-0.094l-0.11,0.094c-0.022,0.014-0.043,0.033-0.064,0.055   c-0.215,0.221-0.389,0.832-0.473,1.634c-0.818,0.765-3.131,3.116-5.218,6.92C26.492,9.473,30.465,9.473,34.344,10.119z"/>
	<path d="M28.479,18.762c-1.864,0-3.38,1.517-3.38,3.38s1.517,3.38,3.38,3.38s3.38-1.517,3.38-3.38S30.342,18.762,28.479,18.762z"/>
	<path d="M35.195,11.779c-0.104-0.22-0.211-0.429-0.317-0.641c-4.222-0.79-8.578-0.79-12.799,0   c-0.106,0.212-0.214,0.421-0.317,0.641c-1.91,4.04-2.878,8.352-2.878,12.819c0,4.469,0.97,8.814,2.881,12.916l0.105,0.226   l0.243,0.061c2.078,0.522,4.22,0.786,6.364,0.786c0.001,0,0.001,0,0.001,0c2.145,0,4.288-0.265,6.368-0.787l0.243-0.061   l0.105-0.226c1.91-4.099,2.879-8.444,2.879-12.915C38.073,20.131,37.105,15.818,35.195,11.779z M28.479,27.504   c-2.957,0-5.362-2.406-5.362-5.362s2.405-5.362,5.362-5.362s5.362,2.405,5.362,5.362S31.435,27.504,28.479,27.504z"/>
</g>
</svg>