<?xml version="1.0" encoding="utf-8"?>
<!-- Generator: Adobe Illustrator 15.1.0, SVG Export Plug-In . SVG Version: 6.00 Build 0)  -->
<!DOCTYPE svg PUBLIC "-//W3C//DTD SVG 1.1//EN" "http://www.w3.org/Graphics/SVG/1.1/DTD/svg11.dtd">
<svg version="1.1" id="Layer_1" xmlns="http://www.w3.org/2000/svg" xmlns:xlink="http://www.w3.org/1999/xlink" x="0px" y="0px"
	 width="100px" height="100px" viewBox="0 0 100 100" enable-background="new 0 0 100 100" xml:space="preserve">
<g>
	<circle fill="#FFFFFF" cx="70.415" cy="31.569" r="5.879"/>
	<path fill="#FFFFFF" d="M91.396,84.848L87.87,50l3.526-34.847c0.071-0.354,0.109-0.72,0.109-1.094l0.004-0.021
		c0-1.496-0.598-2.854-1.562-3.853c-1.011-1.045-2.425-1.696-3.986-1.696l-0.022,0.002c-0.373,0.001-0.737,0.04-1.088,0.109
		L50,12.129L15.149,8.602c-0.353-0.069-0.717-0.108-1.088-0.109L14.038,8.49c-1.563,0-2.978,0.651-3.986,1.696
		c-0.966,0.999-1.562,2.356-1.562,3.853l0.002,0.02c0.001,0.375,0.038,0.74,0.111,1.094L12.129,50L8.603,84.848
		c-0.071,0.354-0.109,0.719-0.111,1.092L8.49,85.962c0,1.496,0.597,2.853,1.562,3.853c1.009,1.045,2.423,1.695,3.986,1.695
		l0.023-0.002c0.373-0.002,0.735-0.039,1.088-0.109L50,87.872l34.852,3.526c0.351,0.069,0.715,0.107,1.088,0.108l0.022,0.002
		c1.593,0,3.026-0.675,4.041-1.754c0.933-0.991,1.509-2.327,1.509-3.794l-0.003-0.02C91.507,85.566,91.469,85.201,91.396,84.848z
		 M59.287,65.34h-1.805c-0.357,0.902-0.848,1.977-1.459,3.104l1.272,1.041c2.029,2.031,2.024,5.234-0.003,7.263
		c-2.027,2.033-5.325,1.983-7.354-0.045l-1.101-1.298c-1.13,0.611-2.449,1.08-3.352,1.437v1.8c0,2.871-2.547,5.198-5.414,5.198
		c-2.872,0.002-5.415-2.327-5.415-5.198v-1.8c-0.902-0.356-2.331-0.842-3.458-1.454l-1.277,1.277
		c-2.031,2.029-5.297,2.035-7.325,0.006c-2.032-2.027-2.016-5.307,0.015-7.336l1.281-0.893c-0.611-1.125-1.093-2.198-1.45-3.102
		h-1.798c-2.871,0-5.199-2.547-5.199-5.413c-0.002-2.874,2.328-5.415,5.196-5.415h1.801c0.357-1.806,0.851-2.578,1.463-3.705
		l-1.279-1.386c-2.023-2.021-2.018-5.358,0.016-7.389c2.026-2.027,5.336-2.052,7.361-0.027l1.196,1.267
		c1.127-0.612,2.556-1.111,3.458-1.469v-1.809c0-2.862,2.543-5.189,5.416-5.189c2.867,0,5.413,2.328,5.413,5.191v1.805
		c0.902,0.357,2.222,0.848,3.349,1.459l1.21-1.279c2.022-2.023,5.269-2.023,7.298,0.007c2.027,2.027,2.006,5.326-0.019,7.35
		l-1.291,1.467c0.612,1.129,1.091,1.902,1.446,3.709h1.81c2.86,0,5.188,2.541,5.188,5.412C64.479,62.793,62.15,65.34,59.287,65.34z
		 M85.344,40.994c-1.349,2.146-4.183,2.786-6.324,1.435l-1.244-0.783c-1.674,1.224-3.67,2.049-5.854,2.312l-0.374,1.475
		c-0.622,2.456-3.121,3.941-5.572,3.319c-2.459-0.619-3.941-3.116-3.32-5.572l0.393-1.541c-1.678-1.229-3.043-2.876-3.938-4.794
		l-1.631,0.107c-2.528,0.167-4.715-1.751-4.881-4.274c-0.168-2.529,1.748-4.712,4.273-4.878l1.688-0.111
		c0.648-1.978,1.779-3.747,3.265-5.161l-0.634-1.587c-0.94-2.353,0.207-5.023,2.56-5.961c2.351-0.942,5.019,0.206,5.958,2.558
		l0.623,1.561c2.138-0.018,4.164,0.509,5.943,1.459l1.23-1.026c1.947-1.62,4.844-1.354,6.461,0.591
		c1.623,1.946,1.355,4.839-0.591,6.459l-1.147,0.958c0.346,1.015,0.567,2.091,0.643,3.214c0.07,1.076,0.002,2.13-0.188,3.143
		l1.23,0.775C86.053,36.019,86.691,38.854,85.344,40.994z"/>
	<circle fill="#FFFFFF" cx="39.963" cy="59.321" r="10.976"/>
</g>
</svg>
